# xmcd CD database file
#
# Track frame offsets:
#	183
#	10133
#	17133
#	28183
#	43433
#	54558
#	61908
#	74083
#	86158
#	99933
#	110308
#	122283
#	131883
#	142408
#	152383
#	164583
#	173408
#	184333
#	194283
#	206608
#
# Disc length: 2943 seconds
#
# Revision: 3
# Processed by: cddbd v1.5.2PL0 Copyright (c) Steve Scherf et al.
# Submitted via: CDex 1.51
#
DISCID=210b7d14
DTITLE=Peggy Lee - Gold Collection [CD 1-2]
DYEAR=2001
DGENRE=Jazz
TTITLE0=That Old Black Magic
TTITLE1=People Will Say That We Are In Love
TTITLE2=Up The Lazy River
TTITLE3=It Ain't Necessarily So
TTITLE4=On The Sunny Side Of The Street
TTITLE5=You Do Something To Me
TTITLE6=Unforgettable
TTITLE7=The Best Is Yet To Come
TTITLE8=Bye Bye Blackbird
TTITLE9=From This Moment On
TTITLE10=I Don't Know Enough About You
TTITLE11=Big Spender
TTITLE12=Lover
TTITLE13=Surrey With The Fringe On Top
TTITLE14=Somebody Loves Me
TTITLE15=Moments Like This
TTITLE16=Big Bad Bill
TTITLE17=It's A Good Day
TTITLE18=Where Can I Go Without You ¿
TTITLE19=I Can't Stop Loving You
EXTD=YEAR: 2001
EXTT0=
EXTT1=
EXTT2=
EXTT3=
EXTT4=
EXTT5=
EXTT6=
EXTT7=
EXTT8=
EXTT9=
EXTT10=
EXTT11=
EXTT12=
EXTT13=
EXTT14=
EXTT15=
EXTT16=
EXTT17=
EXTT18=
EXTT19=
PLAYORDER=
